<svg width="34" height="32" viewBox="0 0 34 32" fill="none" xmlns="http://www.w3.org/2000/svg">
<circle cx="16.625" cy="16" r="16" fill="#00B6DE"/>
<path fill-rule="evenodd" clip-rule="evenodd" d="M0.625 16C0.625 7.16344 7.78844 0 16.625 0C25.4616 0 32.625 7.16344 32.625 16C32.625 24.8366 25.4616 32 16.625 32C7.78844 32 0.625 24.8366 0.625 16ZM8.625 16.1675C8.625 11.7639 12.1968 8.192 16.6005 8.192C21.0042 8.192 24.576 11.7639 24.625 16.1675C24.625 19.6905 22.3742 22.6752 19.1938 23.7516C18.8024 23.8006 18.6556 23.5559 18.6556 23.3602V21.1584C18.6556 20.4244 18.4109 19.9351 18.1174 19.6905C19.8788 19.4948 21.7382 18.8587 21.7382 15.7761C21.7382 14.8954 21.3956 14.1614 20.9064 13.6232C20.9102 13.6078 20.9156 13.5885 20.922 13.5655C20.9969 13.2953 21.2142 12.5111 20.8085 11.5192C20.8085 11.5192 20.1235 11.3235 18.6066 12.351C17.9706 12.2042 17.2855 12.1064 16.6005 12.1064C15.9155 12.1064 15.2305 12.1553 14.5944 12.351C13.0776 11.3235 12.3926 11.5192 12.3926 11.5192C11.9601 12.5763 12.2355 13.3975 12.2919 13.5657L12.2947 13.5743C11.7565 14.1614 11.4629 14.8464 11.4629 15.7272C11.4629 18.8097 13.3223 19.4948 15.0837 19.6905C14.888 19.8862 14.6434 20.2287 14.5944 20.7669C14.1541 20.9626 13.0287 21.3052 12.2947 20.0819C12.2947 20.0819 11.8544 19.299 11.0715 19.2501C11.0715 19.2501 10.2886 19.2501 11.0226 19.7394C11.0226 19.7394 11.5608 19.9841 11.9033 20.9137C11.9033 20.9137 12.3926 22.4795 14.5944 21.9902V23.3602C14.5944 23.5559 14.4476 23.8006 14.0562 23.7516C10.9247 22.6752 8.625 19.6905 8.625 16.1675Z" fill="white"/>
</svg>
