<svg width="34" height="32" viewBox="0 0 34 32" fill="none" xmlns="http://www.w3.org/2000/svg">
<circle cx="16.625" cy="16" r="16" fill="#00B6DE"/>
<path fill-rule="evenodd" clip-rule="evenodd" d="M16.625 0C25.4616 0 32.625 7.16344 32.625 16C32.625 24.8366 25.4616 32 16.625 32C7.78844 32 0.625 24.8366 0.625 16C0.625 7.16344 7.78844 0 16.625 0ZM19.8328 12.3782C19.0037 11.5855 17.9491 11.1818 16.7746 11.1818C14.691 11.1818 12.9276 12.589 12.2985 14.48C12.1385 14.96 12.0476 15.4727 12.0476 16C12.0476 16.5272 12.1382 17.04 12.2982 17.52C12.9273 19.4109 14.691 20.8181 16.7746 20.8181C17.851 20.8181 18.7676 20.5346 19.484 20.0546C20.3313 19.4873 20.8949 18.64 21.0804 17.64H16.7749V14.5455H24.3095C24.404 15.0691 24.4549 15.6146 24.4549 16.1818C24.4549 18.6182 23.5822 20.6691 22.0695 22.0619C20.7458 23.2837 18.9346 24 16.7746 24C13.6473 24 10.9419 22.2072 9.62549 19.5927C9.08367 18.5127 8.7749 17.2909 8.7749 16C8.7749 14.709 9.08399 13.4872 9.62581 12.4072C10.9422 9.79268 13.6473 8 16.7746 8C18.931 8 20.7419 8.79273 22.1273 10.0836L19.8328 12.3782Z" fill="white"/>
</svg>
