<svg width="34" height="32" viewBox="0 0 34 32" fill="none" xmlns="http://www.w3.org/2000/svg">
<circle cx="17.75" cy="16" r="16" fill="#00B6DE"/>
<path d="M17.75 18.8C16.25 18.8 14.95 17.6 14.95 16C14.95 14.5 16.15 13.2 17.75 13.2C19.25 13.2 20.55 14.4 20.55 16C20.55 17.5 19.25 18.8 17.75 18.8Z" fill="white"/>
<path fill-rule="evenodd" clip-rule="evenodd" d="M21.15 9.2H14.35C13.55 9.3 13.15 9.4 12.85 9.5C12.45 9.6 12.15 9.8 11.85 10.1C11.6126 10.3374 11.5005 10.5748 11.3649 10.8617C11.3292 10.9373 11.2917 11.0166 11.25 11.1C11.2345 11.1464 11.2167 11.1952 11.1975 11.2475C11.0929 11.5333 10.95 11.9238 10.95 12.6V19.4C11.05 20.2 11.15 20.6 11.25 20.9C11.35 21.3 11.55 21.6 11.85 21.9C12.0874 22.1374 12.3248 22.2495 12.6117 22.3851C12.6874 22.4209 12.7665 22.4583 12.85 22.5C12.8964 22.5155 12.9452 22.5333 12.9975 22.5525C13.2833 22.6571 13.6738 22.8 14.35 22.8H21.15C21.95 22.7 22.35 22.6 22.65 22.5C23.05 22.4 23.35 22.2 23.65 21.9C23.8874 21.6626 23.9995 21.4252 24.1351 21.1383C24.1709 21.0626 24.2083 20.9835 24.25 20.9C24.2655 20.8536 24.2833 20.8048 24.3025 20.7525C24.4071 20.4667 24.55 20.0762 24.55 19.4V12.6C24.45 11.8 24.35 11.4 24.25 11.1C24.15 10.7 23.95 10.4 23.65 10.1C23.4126 9.86261 23.1752 9.75045 22.8883 9.61488C22.8127 9.57918 22.7333 9.54167 22.65 9.5C22.6036 9.48453 22.5548 9.46666 22.5025 9.44752C22.2167 9.3429 21.8262 9.2 21.15 9.2ZM17.75 11.7C15.35 11.7 13.45 13.6 13.45 16C13.45 18.4 15.35 20.3 17.75 20.3C20.15 20.3 22.05 18.4 22.05 16C22.05 13.6 20.15 11.7 17.75 11.7ZM23.15 11.6C23.15 12.1523 22.7023 12.6 22.15 12.6C21.5977 12.6 21.15 12.1523 21.15 11.6C21.15 11.0477 21.5977 10.6 22.15 10.6C22.7023 10.6 23.15 11.0477 23.15 11.6Z" fill="white"/>
<path fill-rule="evenodd" clip-rule="evenodd" d="M1.75 16C1.75 7.16344 8.91344 0 17.75 0C26.5866 0 33.75 7.16344 33.75 16C33.75 24.8366 26.5866 32 17.75 32C8.91344 32 1.75 24.8366 1.75 16ZM14.35 7.7H21.15C22.05 7.8 22.65 7.9 23.15 8.1C23.75 8.4 24.15 8.6 24.65 9.1C25.15 9.6 25.45 10.1 25.65 10.6C25.85 11.1 26.05 11.7 26.05 12.6V19.4C25.95 20.3 25.85 20.9 25.65 21.4C25.35 22 25.15 22.4 24.65 22.9C24.15 23.4 23.65 23.7 23.15 23.9C22.65 24.1 22.05 24.3 21.15 24.3H14.35C13.45 24.2 12.85 24.1 12.35 23.9C11.75 23.6 11.35 23.4 10.85 22.9C10.35 22.4 10.05 21.9 9.85 21.4C9.65 20.9 9.45 20.3 9.45 19.4V12.6C9.55 11.7 9.65 11.1 9.85 10.6C10.15 10 10.35 9.6 10.85 9.1C11.35 8.6 11.85 8.3 12.35 8.1C12.85 7.9 13.45 7.7 14.35 7.7Z" fill="white"/>
</svg>
