<svg width="34" height="32" viewBox="0 0 34 32" fill="none" xmlns="http://www.w3.org/2000/svg">
<circle cx="17.75" cy="16" r="16" fill="#00B6DE"/>
<path fill-rule="evenodd" clip-rule="evenodd" d="M1.75 16C1.75 7.16344 8.91344 0 17.75 0C26.5866 0 33.75 7.16344 33.75 16C33.75 24.8366 26.5866 32 17.75 32C8.91344 32 1.75 24.8366 1.75 16ZM9.95 13.3V24H13.35V13.3H9.95ZM9.75 9.9C9.75 11 10.55 11.8 11.65 11.8C12.75 11.8 13.55 11 13.55 9.9C13.55 8.8 12.75 8 11.65 8C10.65 8 9.75 8.8 9.75 9.9ZM22.35 24H25.55V17.4C25.55 14.1 23.55 13 21.65 13C19.95 13 18.75 14.1 18.45 14.8V13.3H15.25V24H18.65V18.3C18.65 16.8 19.65 16 20.65 16C21.65 16 22.35 16.5 22.35 18.2V24Z" fill="white"/>
</svg>
