<svg width="40" height="41" viewBox="0 0 40 41" fill="none" xmlns="http://www.w3.org/2000/svg">
<path d="M8.33333 5.48608C6.49167 5.48608 5 6.97775 5 8.81942C5 10.6611 6.49167 12.1528 8.33333 12.1528C10.175 12.1528 11.6667 10.6611 11.6667 8.81942C11.6667 6.97775 10.175 5.48608 8.33333 5.48608ZM20 5.48608C18.1583 5.48608 16.6667 6.97775 16.6667 8.81942C16.6667 10.6611 18.1583 12.1528 20 12.1528C21.8417 12.1528 23.3333 10.6611 23.3333 8.81942C23.3333 6.97775 21.8417 5.48608 20 5.48608ZM31.6667 5.48608C29.825 5.48608 28.3333 6.97775 28.3333 8.81942C28.3333 10.6611 29.825 12.1528 31.6667 12.1528C33.5083 12.1528 35 10.6611 35 8.81942C35 6.97775 33.5083 5.48608 31.6667 5.48608ZM8.33333 17.1528C6.49167 17.1528 5 18.6444 5 20.4861C5 22.3278 6.49167 23.8194 8.33333 23.8194C10.175 23.8194 11.6667 22.3278 11.6667 20.4861C11.6667 18.6444 10.175 17.1528 8.33333 17.1528ZM20 17.1528C18.1583 17.1528 16.6667 18.6444 16.6667 20.4861C16.6667 22.3278 18.1583 23.8194 20 23.8194C21.8417 23.8194 23.3333 22.3278 23.3333 20.4861C23.3333 18.6444 21.8417 17.1528 20 17.1528ZM31.6667 17.1528C29.825 17.1528 28.3333 18.6444 28.3333 20.4861C28.3333 22.3278 29.825 23.8194 31.6667 23.8194C33.5083 23.8194 35 22.3278 35 20.4861C35 18.6444 33.5083 17.1528 31.6667 17.1528ZM8.33333 28.8194C6.49167 28.8194 5 30.3111 5 32.1528C5 33.9944 6.49167 35.4861 8.33333 35.4861C10.175 35.4861 11.6667 33.9944 11.6667 32.1528C11.6667 30.3111 10.175 28.8194 8.33333 28.8194ZM20 28.8194C18.1583 28.8194 16.6667 30.3111 16.6667 32.1528C16.6667 33.9944 18.1583 35.4861 20 35.4861C21.8417 35.4861 23.3333 33.9944 23.3333 32.1528C23.3333 30.3111 21.8417 28.8194 20 28.8194ZM31.6667 28.8194C29.825 28.8194 28.3333 30.3111 28.3333 32.1528C28.3333 33.9944 29.825 35.4861 31.6667 35.4861C33.5083 35.4861 35 33.9944 35 32.1528C35 30.3111 33.5083 28.8194 31.6667 28.8194Z" fill="#007994"/>
</svg>
