<svg width="20" height="22" viewBox="0 0 20 22" fill="none" xmlns="http://www.w3.org/2000/svg">
<path d="M0 0.523809V18.619H4.7619V17.6667H0.952381V1.47619H13.8095V2.42857H14.7619V0.523809H0ZM5.71429 3.38095V21.4762H20V21V3.38095H5.71429ZM6.66667 4.33333H19.0476V20.5238H6.66667V4.33333ZM9.52381 8.14286C9.0033 8.14286 8.57143 8.57473 8.57143 9.09524C8.57143 11.3166 9.03115 13.0855 10.6157 14.67C10.64 14.6942 10.6668 14.7157 10.6957 14.7342C12.2604 16.2571 14.0053 16.7143 16.1905 16.7143C16.711 16.7143 17.1429 16.2824 17.1429 15.7619V14.3333C17.1429 13.814 16.7119 13.381 16.1914 13.381C15.5221 13.3805 14.1071 13.381 14.1071 13.381C14.0282 13.381 13.9505 13.4006 13.881 13.4381C13.8115 13.4756 13.7524 13.5298 13.7091 13.5958L12.7502 15.0569C12.2501 14.7943 11.7651 14.4727 11.2891 13.9967C10.813 13.5206 10.4914 13.0356 10.2288 12.5355L11.6899 11.5766C11.7559 11.5333 11.8101 11.4742 11.8476 11.4047C11.8851 11.3353 11.9048 11.2575 11.9048 11.1786C11.9048 11.1786 11.9052 9.76358 11.9048 9.09431C11.9048 8.57438 11.4717 8.14286 10.9524 8.14286H9.52381ZM9.52381 9.09524H10.9524C10.9528 9.68114 10.9525 10.645 10.9524 10.9219L9.84375 11.6492C9.61526 10.9011 9.52381 10.0806 9.52381 9.09524ZM14.3638 14.3333C14.6407 14.3332 15.6046 14.3329 16.1905 14.3333V15.7619C15.2051 15.7619 14.3846 15.6704 13.6365 15.442L14.3638 14.3333Z" fill="#007994"/>
</svg>
