<svg width="34" height="32" viewBox="0 0 34 32" fill="none" xmlns="http://www.w3.org/2000/svg">
<circle cx="17.75" cy="16" r="16" fill="#00B6DE"/>
<path fill-rule="evenodd" clip-rule="evenodd" d="M1.75 16C1.75 7.16344 8.91344 0 17.75 0C26.5866 0 33.75 7.16344 33.75 16C33.75 24.8366 26.5866 32 17.75 32C8.91344 32 1.75 24.8366 1.75 16ZM23.85 11.5C24.55 11.4 25.15 11.3 25.75 11C25.35 11.7 24.75 12.3 24.05 12.7C24.25 17.4 20.85 22.5 14.75 22.5C12.95 22.5 11.25 21.9 9.75 21C11.45 21.2 13.25 20.7 14.45 19.8C12.95 19.8 11.75 18.8 11.35 17.5C11.85 17.6 12.35 17.5 12.85 17.4C11.35 17 10.25 15.6 10.25 14.1C10.75 14.3 11.25 14.5 11.75 14.5C10.35 13.5 9.85 11.6 10.75 10.1C12.45 12.1 14.85 13.4 17.55 13.5C17.05 11.5 18.65 9.5 20.75 9.5C21.65 9.5 22.55 9.9 23.15 10.5C23.95 10.3 24.65 10.1 25.25 9.7C25.05 10.5 24.55 11.1 23.85 11.5Z" fill="white"/>
</svg>
